<svg id="Group_1" data-name="Group 1" xmlns="http://www.w3.org/2000/svg" width="58" height="24" viewBox="0 0 58 24">
  <g id="GAME_CONTROLS" data-name="GAME CONTROLS">
    <g id="Rectangle_Copy_4" data-name="Rectangle Copy 4" fill="#fff" stroke="#8d8d8d" stroke-miterlimit="10" stroke-width="0.8">
      <rect width="24" height="24" rx="3" stroke="none"/>
      <rect x="0.4" y="0.4" width="23.2" height="23.2" rx="2.6" fill="none"/>
    </g>
    <g id="ic-arrows-left" transform="translate(5 6)">
      <path id="Path" d="M4.2.446.3,5.316a1,1,0,0,0,0,1.42l3.9,4.87a1,1,0,0,0,1.56-1.24l-2.7-3.3h9.92a1,1,0,0,0,0-2H3.056l2.7-3.38A1,1,0,1,0,4.2.446Z" fill="#0e1317"/>
    </g>
  </g>
  <g id="GAME_CONTROLS-2" data-name="GAME CONTROLS" transform="translate(34)">
    <g id="Rectangle_Copy_4-2" data-name="Rectangle Copy 4" fill="#fff" stroke="#8d8d8d" stroke-miterlimit="10" stroke-width="0.8">
      <rect width="24" height="24" rx="3" stroke="none"/>
      <rect x="0.4" y="0.4" width="23.2" height="23.2" rx="2.6" fill="none"/>
    </g>
    <g id="ic-arrows-left-2" data-name="ic-arrows-left" transform="translate(5.024 6)">
      <path id="Path-2" data-name="Path" d="M9.78.446l3.9,4.87a1,1,0,0,1,0,1.42l-3.9,4.87a1,1,0,0,1-1.56-1.24l2.7-3.3H1a1,1,0,0,1,0-2h9.92l-2.7-3.38A1,1,0,1,1,9.78.446Z" fill="#0e1317"/>
    </g>
  </g>
</svg>
